<svg width="107" height="33" viewBox="0 0 107 33" fill="none" xmlns="http://www.w3.org/2000/svg">
<path fill-rule="evenodd" clip-rule="evenodd" d="M0.524 0.2V32.2H5.68975V22.0057L7.75604 17.9371L12.1234 32.2H17.524L11.2781 11.9486L17.4301 0.2H12.2643L5.68975 13.6857V0.2H0.524ZM19.524 0.2V32.2H33.524V27.6286H24.6573V17.8H31.704V13.2286H24.6573V4.77143H33.524V0.2H19.524ZM36.524 32.2V0.2H42.924L47.8863 19.3543H47.9791V0.2H52.524V32.2H47.2834L41.1617 8.84H41.0689V32.2H36.524ZM54.524 27.72V32.2H69.524V27.6286H60.0209L69.524 4.68V0.2H54.9898V4.77143H64.0271L54.524 27.72ZM71.524 32.2L76.6646 0.2H83.3834L88.524 32.2H83.5638L82.6619 25.8457V25.9371H77.0253L76.1235 32.2H71.524ZM82.524 21.2H77.524L79.9482 5.2H80.0493L82.524 21.2ZM91.524 32.2V0.2H98.978C104.039 0.2 106.524 2.98857 106.524 8.10857V11.2629C106.524 16.3829 104.039 19.1714 98.978 19.1714H96.5854V32.2H91.524ZM98.9768 14.2H96.524V4.2H98.9768C100.628 4.2 101.524 4.94419 101.524 7.26977V11.1302C101.524 13.4558 100.628 14.2 98.9768 14.2Z" fill="#191718"/>
</svg>
