<svg width="145" height="41" viewBox="0 0 145 41" fill="none" xmlns="http://www.w3.org/2000/svg">
<path d="M113.984 26.322V27.565H111.938V34H110.398V27.565H108.352V26.322H113.984ZM118.148 27.565V29.49H120.733V30.711H118.148V32.746H121.063V34H116.608V26.311H121.063V27.565H118.148ZM123.588 30.15C123.588 29.3947 123.757 28.72 124.094 28.126C124.439 27.5247 124.904 27.059 125.491 26.729C126.085 26.3917 126.749 26.223 127.482 26.223C128.34 26.223 129.092 26.443 129.737 26.883C130.382 27.323 130.833 27.9317 131.09 28.709H129.319C129.143 28.3423 128.894 28.0673 128.571 27.884C128.256 27.7007 127.889 27.609 127.471 27.609C127.024 27.609 126.624 27.7153 126.272 27.928C125.927 28.1333 125.656 28.4267 125.458 28.808C125.267 29.1893 125.172 29.6367 125.172 30.15C125.172 30.656 125.267 31.1033 125.458 31.492C125.656 31.8733 125.927 32.1703 126.272 32.383C126.624 32.5883 127.024 32.691 127.471 32.691C127.889 32.691 128.256 32.5993 128.571 32.416C128.894 32.2253 129.143 31.9467 129.319 31.58H131.09C130.833 32.3647 130.382 32.977 129.737 33.417C129.099 33.8497 128.347 34.066 127.482 34.066C126.749 34.066 126.085 33.901 125.491 33.571C124.904 33.2337 124.439 32.768 124.094 32.174C123.757 31.58 123.588 30.9053 123.588 30.15ZM140.274 26.322V34H138.734V30.733H135.445V34H133.905V26.322H135.445V29.479H138.734V26.322H140.274Z" fill="#323232"/>
<path fill-rule="evenodd" clip-rule="evenodd" d="M0.501465 0.212402V34.2124H5.9132V23.381L8.07789 19.0581L12.6533 34.2124H18.311L11.7677 12.6953L18.2126 0.212402H12.8009L5.9132 14.541V0.212402H0.501465ZM20.4062 0.212402V34.2124H35.0729V29.3553H25.784V18.9124H33.1662V14.0553H25.784V5.06955H35.0729V0.212402H20.4062ZM38.2158 34.2124V0.212402H44.9205L50.1191 20.5638H50.2163V0.212402H54.9777V34.2124H49.4875L43.0743 9.3924H42.9771V34.2124H38.2158ZM57.0729 29.4524V34.2124H72.7872V29.3553H62.8315L72.7872 4.9724V0.212402H57.5609V5.06955H67.0285L57.0729 29.4524ZM74.8824 34.2124L80.2678 0.212402H87.3066L92.6919 34.2124H87.4955L86.5507 27.461V27.5581H80.6457L79.7009 34.2124H74.8824ZM86.4062 22.5249H81.1681L83.7078 5.5249H83.8136L86.4062 22.5249ZM95.8348 34.2124V0.212402H103.644C108.946 0.212402 111.549 3.17526 111.549 8.61526V11.9667C111.549 17.4067 108.946 20.3695 103.644 20.3695H101.137V34.2124H95.8348ZM103.643 15.0874H101.073V4.4624H103.643C105.372 4.4624 106.311 5.2531 106.311 7.72403V11.8258C106.311 14.2967 105.372 15.0874 103.643 15.0874Z" fill="#191718"/>
</svg>
