<svg width="25" height="22" viewBox="0 0 25 22" fill="none" xmlns="http://www.w3.org/2000/svg">
<path fill-rule="evenodd" clip-rule="evenodd" d="M11.5335 21.6408C11.801 21.8725 12.1441 22 12.5 22C12.8557 22 13.199 21.8725 13.4663 21.6412C14.4785 20.7656 15.4537 19.9434 16.3143 19.2182L16.3147 19.2179C18.8328 17.0952 21.0074 15.2621 22.5206 13.456C24.2123 11.4371 25 9.52279 25 7.4315C25 5.39963 24.2958 3.52511 23.0169 2.15299C21.7228 0.764638 19.9469 0 18.0162 0C16.5731 0 15.2515 0.451274 14.0882 1.34118C13.501 1.79038 12.969 2.34014 12.5 2.98139C12.0312 2.34014 11.499 1.79038 10.9119 1.34118C9.74865 0.451274 8.42705 0 6.98395 0C5.05314 0 3.2774 0.764638 1.98326 2.15299C0.704384 3.52511 0 5.39963 0 7.4315C0 9.52279 0.787926 11.4371 2.47955 13.4562C3.99284 15.2622 6.16779 17.0956 8.68645 19.2186L8.69083 19.2224C9.5499 19.9464 10.5236 20.7673 11.5335 21.6408ZM3.05977 3.13477C4.07352 2.04734 5.46703 1.44853 6.98395 1.44853C8.09498 1.44853 9.11522 1.79793 10.0161 2.48691C10.8191 3.10119 11.3783 3.87771 11.706 4.42105C11.8746 4.70046 12.1714 4.86724 12.5 4.86724C12.8286 4.86724 13.1254 4.70046 13.294 4.42105C13.6219 3.87771 14.1811 3.10119 14.9839 2.48691C15.8848 1.79793 16.905 1.44853 18.0162 1.44853C19.533 1.44853 20.9267 2.04734 21.9402 3.13477C22.9691 4.23862 23.5357 5.7645 23.5357 7.4315C23.5357 9.19038 22.8748 10.7634 21.3932 12.5319C19.9623 14.2398 17.8347 16.0334 15.3711 18.1102L15.3645 18.1159C14.5004 18.8439 13.5214 19.6693 12.4979 20.5509C11.4805 19.671 10.503 18.8469 9.64069 18.12L9.63612 18.1162L9.63467 18.115C7.1687 16.0363 5.03894 14.241 3.60699 12.5319C2.12517 10.7634 1.46427 9.19038 1.46427 7.4315C1.46427 5.7645 2.03094 4.23862 3.05977 3.13477Z" fill="black"/>
</svg>
