<svg width="26" height="26" viewBox="0 0 26 26" fill="none" xmlns="http://www.w3.org/2000/svg">
<path fill-rule="evenodd" clip-rule="evenodd" d="M0 13C0 5.8214 5.8214 0 13 0C20.1786 0 26 5.8214 26 13C26 20.1786 20.1786 26 13 26C5.8214 26 0 20.1786 0 13ZM6.05626 19.6523H9.22235V10.1271H6.05626V19.6523ZM7.6394 8.82642H7.61877C6.55634 8.82642 5.8692 8.09505 5.8692 7.18098C5.8692 6.24629 6.57736 5.53516 7.66043 5.53516C8.7435 5.53516 9.41 6.24629 9.43063 7.18098C9.43063 8.09505 8.7435 8.82642 7.6394 8.82642ZM17.4729 19.6523H20.6386V14.1906C20.6386 11.2649 19.0767 9.90353 16.9937 9.90353C15.3139 9.90353 14.5611 10.8267 14.1404 11.4758V10.1271H10.9745C11.016 11.0207 10.9745 19.6523 10.9745 19.6523H14.1404V14.333C14.1404 14.0484 14.1608 13.7639 14.2445 13.5604C14.4734 12.9917 14.9944 12.4025 15.8689 12.4025C17.0145 12.4025 17.4729 13.2759 17.4729 14.5566V19.6523Z" fill="#A2A2A2"/>
</svg>
