<svg width="26" height="26" viewBox="0 0 26 26" fill="none" xmlns="http://www.w3.org/2000/svg">
<path fill-rule="evenodd" clip-rule="evenodd" d="M0 13C0 5.8214 5.8214 0 13 0C20.1786 0 26 5.8214 26 13C26 20.1786 20.1786 26 13 26C5.8214 26 0 20.1786 0 13ZM18.9442 10.5216C18.9442 10.3925 18.9414 10.264 18.9357 10.136C19.5182 9.71489 20.0247 9.18922 20.424 8.59076C19.8894 8.8284 19.3141 8.98848 18.7105 9.06068C19.3266 8.69113 19.7995 8.10675 20.0227 7.41029C19.446 7.75208 18.8077 8.00043 18.1279 8.13452C17.5834 7.5545 16.8082 7.1917 15.9499 7.1917C14.3021 7.1917 12.9657 8.52808 12.9657 10.1753C12.9657 10.4094 12.9921 10.6371 13.0432 10.8557C10.5633 10.7309 8.36423 9.5435 6.89276 7.73799C6.63647 8.17896 6.48869 8.69113 6.48869 9.23782C6.48869 10.2731 7.01535 11.187 7.81654 11.7215C7.32698 11.7065 6.86717 11.572 6.46509 11.3484C6.46469 11.3609 6.46469 11.373 6.46469 11.3865C6.46469 12.8314 7.49321 14.038 8.85855 14.3114C8.60782 14.3798 8.34399 14.4165 8.07164 14.4165C7.87982 14.4165 7.69276 14.3975 7.51086 14.3626C7.89093 15.5482 8.99225 16.4109 10.2985 16.4351C9.2771 17.2355 7.99051 17.7123 6.59244 17.7123C6.35182 17.7123 6.11418 17.6987 5.88071 17.6711C7.20122 18.5175 8.76929 19.0114 10.4544 19.0114C15.9429 19.0112 18.9442 14.4645 18.9442 10.5216Z" fill="#A2A2A2"/>
</svg>
